# xmcd
#
# Track frame offsets: 
#        150
#        19100
#        41741
#        60766
#        76949
#        93238
#        109548
#        129930
#        149441
#        162272
#        176357
#        191899
#
# Disc length: 2734 seconds
#
# Revision: 0
# Processed by: cddbd v1.5.2PL0 Copyright (c) Steve Scherf et al.
# Submitted via: ExactAudioCopy v1.0b3
#
DISCID=900aac0c
DTITLE=Celtic Woman - Home for Christmas
DYEAR=2012
DGENRE=Country
TTITLE0=I'll Be Home For Christmas (Lisa Lambe)
TTITLE1=Hark The Herald Angels Sing (Chloe Agnew, Meav Ni Mhaolchatha,
TTITLE1=Lisa Lambe, Mairead Nesbitt)
TTITLE2=Santa Claus Is Coming To Town (Chloe Agnew, Mairead Nesbitt)
TTITLE3=Silent Night (Meav Ni Mhaolchatha)
TTITLE4=We Three Kings (Lisa Lambe, Chloe Agnew, Meav Ni Mhaolchatha)
TTITLE5=We Wish You A Merry Christmas (Chloe Agnew, Meav Ni Mhaolchath
TTITLE5=a, Lisa Lambe, Mairead Nesbitt)
TTITLE6=What Child Is This (Meav Ni Mhaolchatha, Mairead Nesbitt)
TTITLE7=Adeste Fidelis (Chloe Agnew)
TTITLE8=Winter Wonderland (Chloe Agnew, Meav Ni Mhaolchatha, Lisa Lamb
TTITLE8=e, Mairead Nesbitt)
TTITLE9=Mary's Boy Child (Lisa Lambe, Chloe Agnew, Meav Ni Mhaolchatha
TTITLE9=)
TTITLE10=Auld Lang Syne (Lisa Lambe)
TTITLE11=Joy To The World (Lisa Lambe, Chloe Agnew, Meav Ni Mhaolchath
TTITLE11=a)
EXTD=
EXTT0=
EXTT1=
EXTT2=
EXTT3=
EXTT4=
EXTT5=
EXTT6=
EXTT7=
EXTT8=
EXTT9=
EXTT10=
EXTT11=
PLAYORDER=
